<mxfile host="app.diagrams.net" modified="2023-11-24T03:24:45.272Z" agent="Mozilla/5.0 (Macintosh; Intel Mac OS X 10_15_7) AppleWebKit/537.36 (KHTML, like Gecko) Chrome/119.0.0.0 Safari/537.36" version="22.1.3" etag="_1cD7UP4jhjsdnIPhGG3" type="github">
  <diagram name="Page-1" id="8kXA6GbL39BPlHJQrs0B">
    <mxGraphModel>
      <root>
        <mxCell id="0" />
        <mxCell id="1" parent="0" />
      </root>
    </mxGraphModel>
  </diagram>
</mxfile>
